<svg xmlns="http://www.w3.org/2000/svg" viewBox="0 0 283.46 283.46" x="0px" y="0px"><title>instrument</title><g data-name="Ebene 2"><path d="M141.73,69.27c-45.47,0-82.34,22.78-82.34,50.88h0v43.15c0,28.1,36.86,50.88,82.34,50.88s82.34-22.78,82.34-50.88V120.16h0C224.07,92.05,187.2,69.27,141.73,69.27ZM71.4,120.16c0-5.37,2.39-15.87,18.42-25.77,13.68-8.45,32.12-13.11,51.91-13.11S180,85.93,193.64,94.38c16,9.91,18.42,20.4,18.42,25.77s-2.39,15.87-18.42,25.77C180,154.38,161.53,159,141.73,159s-38.23-4.66-51.91-13.11C73.79,136,71.4,125.53,71.4,120.16ZM147.73,202V170.89a121.44,121.44,0,0,0,34.21-6.33v30.37A106.13,106.13,0,0,1,147.73,202Zm-46.21-7.1V164.56a121.44,121.44,0,0,0,34.21,6.33V202A106.13,106.13,0,0,1,101.53,194.93ZM71.4,146.62A69.72,69.72,0,0,0,89.53,159.5v29.39C73.77,179,71.4,168.65,71.4,163.31ZM193.94,159.5a69.72,69.72,0,0,0,18.13-12.88v16.69c0,5.34-2.37,15.73-18.13,25.58Z"></path></g></svg>