<svg fill="#FD9630" xmlns="http://www.w3.org/2000/svg" viewBox="0 0 283.46 283.46" x="0px" y="0px"><title>instrument</title><g data-name="Ebene 2"><path d="M220.39,58.8,192.73,86.46c-14-6.85-31.73-11-51-11s-37,4.1-51,11L63.08,58.8a6,6,0,0,0-8.48,8.49L80,92.72c-12.83,9-20.63,20.76-20.63,33.67h0v43.15c0,28.1,36.86,50.88,82.34,50.88s82.34-22.78,82.34-50.88V126.39h0c0-12.92-7.8-24.7-20.63-33.67l25.43-25.43a6,6,0,0,0-8.48-8.49Zm-8.32,67.59c0,5.37-2.39,15.87-18.42,25.77-13.68,8.45-32.11,13.11-51.91,13.11h0c-19.79,0-38.23-4.66-51.91-13.11-16-9.91-18.42-20.4-18.42-25.77s2.28-15.35,17.27-25l26.28,26.28a6,6,0,1,0,8.48-8.49L99.78,95.5c12.12-5.19,26.63-8,42-8s29.83,2.8,42,8L160,119.15a6,6,0,1,0,8.48,8.49l26.28-26.28C209.78,111,212.07,121.15,212.07,126.39Zm-64.34,81.88V177.12a121.44,121.44,0,0,0,34.21-6.33v30.37A106.13,106.13,0,0,1,147.73,208.27Zm-46.21-7.1V170.79a121.44,121.44,0,0,0,34.21,6.33v31.14A106.13,106.13,0,0,1,101.53,201.16ZM71.4,152.85a69.72,69.72,0,0,0,18.13,12.88v29.39c-15.76-9.85-18.13-20.25-18.13-25.58Zm122.54,12.88a69.72,69.72,0,0,0,18.13-12.88v16.69c0,5.34-2.37,15.73-18.13,25.58Z"></path></g></svg>